# xmcd
#
# Track frame offsets:
# 150
# 14530
# 26476
# 35840
# 49556
# 61715
# 72121
# 95944
#
# Disc length: 1287 seconds
#
#
# Revision: 0
# Processed by: cddbd v1.5.2PL0 Copyright (c) Steve Scherf et al.
# Submitted via: Nero 7, 11, 10, 0 
#
DISCID=67050508
DTITLE=The Juke Joint Pimps - Boogie The House Down (Demo)
DYEAR=2008
DGENRE=Blues
TTITLE0=Dust My Broom
TTITLE1=Ride With Me
TTITLE2=I Just Wanna Make Love
TTITLE3=She's Tough
TTITLE4=I Can't Be Satisfied
TTITLE5=A Cutie Named Judie
TTITLE6=Rollin' And Tumblin'
TTITLE7=Unknown
EXTD=
EXTT0=Dust My Broom
EXTT1=Ride With Me
EXTT2=I Just Wanna Make Love
EXTT3=She's Tough
EXTT4=I Can't Be Satisfied
EXTT5=A Cutie Named Judie
EXTT6=Rollin' And Tumblin'
EXTT7=Unknown
PLAYORDER=
